<?xml version="1.0" standalone="no"?>
<!DOCTYPE svg PUBLIC "-//W3C//DTD SVG 20010904//EN"
 "http://www.w3.org/TR/2001/REC-SVG-20010904/DTD/svg10.dtd">
<svg version="1.0" xmlns="http://www.w3.org/2000/svg"
 width="512.000000pt" height="512.000000pt" viewBox="0 0 512.000000 512.000000"
 preserveAspectRatio="xMidYMid meet">

<g transform="translate(0.000000,512.000000) scale(0.100000,-0.100000)"
fill="#000000" stroke="none">
<path d="M65 5111 c-11 -5 -29 -19 -40 -31 -20 -22 -20 -36 -20 -2521 l0
-2499 28 -27 27 -28 227 -3 c125 -2 238 0 251 3 13 3 35 18 48 32 23 25 24 30
24 199 l0 174 1950 0 1950 0 0 -174 c0 -169 1 -174 24 -199 13 -14 35 -29 48
-32 13 -3 126 -5 251 -3 l227 3 27 28 28 27 0 2500 0 2500 -28 27 -27 28 -227
3 c-125 2 -238 0 -251 -3 -13 -3 -35 -18 -48 -32 -23 -25 -24 -30 -24 -199 l0
-174 -1950 0 -1950 0 0 173 c-1 246 11 237 -302 236 -123 0 -232 -4 -243 -8z
m343 -2554 l2 -2358 -102 3 -103 3 -3 2345 c-1 1290 0 2351 3 2358 3 9 30 12
102 10 l98 -3 3 -2358z m4507 3 l0 -2355 -100 0 -100 0 -3 2358 -2 2358 102
-3 103 -3 0 -2355z m-407 1842 l3 -102 -1948 2 -1948 3 -3 89 c-2 49 -1 95 2
103 5 11 338 13 1948 11 l1943 -3 3 -103z m0 -919 l2 -613 -205 0 -204 0 -3
473 c-3 436 -4 475 -21 500 -10 16 -29 32 -43 37 -37 15 -1079 13 -1107 -1
-59 -30 -57 -11 -57 -531 l0 -478 -310 0 -310 0 0 478 c0 520 2 501 -57 531
-28 14 -1070 16 -1107 1 -14 -5 -33 -21 -43 -37 -17 -25 -18 -64 -21 -500 l-3
-473 -204 0 -205 0 0 608 c0 335 3 612 7 615 3 4 880 6 1947 5 l1941 -3 3
-612z m-2458 -203 l0 -410 -410 0 -410 0 0 410 0 410 410 0 410 0 0 -410z
m1840 0 l0 -410 -410 0 -410 0 0 410 0 410 410 0 410 0 0 -410z m620 -720 l0
-100 -1950 0 -1950 0 0 100 0 100 1950 0 1950 0 0 -100z m-2 -922 l-3 -613
-152 -3 -153 -3 0 466 c0 521 0 524 -64 550 -53 22 -3099 22 -3152 0 -64 -26
-64 -29 -64 -550 l0 -466 -152 3 -153 3 -3 613 -2 612 1950 0 1950 0 -2 -612z
m-2560 -205 l-3 -408 -407 -3 -408 -2 0 410 0 410 410 0 410 0 -2 -407z m1022
-3 l0 -410 -410 0 -410 0 0 410 0 410 410 0 410 0 0 -410z m1020 0 l0 -410
-407 2 -408 3 -3 408 -2 407 410 0 410 0 0 -410z m515 -715 l0 -100 -1945 0
-1945 0 -3 103 -3 102 1948 -2 1948 -3 0 -100z"/>
<path d="M1469 3552 c-24 -22 -31 -36 -31 -65 0 -45 24 -84 58 -97 35 -14 260
-13 287 1 63 32 77 111 28 160 l-29 29 -141 0 c-140 0 -141 0 -172 -28z"/>
<path d="M3309 3551 c-49 -49 -35 -128 28 -160 27 -14 252 -15 287 -1 61 23
78 111 30 161 l-28 29 -144 0 -144 0 -29 -29z"/>
<path d="M1372 1715 c-51 -43 -51 -107 -1 -154 21 -19 34 -21 163 -21 118 0
144 3 162 18 44 35 55 82 30 131 -23 43 -54 51 -196 51 -123 0 -130 -1 -158
-25z"/>
<path d="M2408 1724 c-57 -31 -66 -107 -19 -155 l29 -29 142 0 142 0 29 29
c48 49 38 125 -21 156 -40 21 -263 21 -302 -1z"/>
<path d="M3414 1706 c-48 -48 -44 -105 10 -148 18 -15 44 -18 162 -18 129 0
142 2 163 21 50 47 50 111 -1 154 -28 24 -35 25 -165 25 l-135 0 -34 -34z"/>
</g>
</svg>
